<?xml version="1.0" encoding="utf-8"?>
<!-- Generator: Adobe Illustrator 23.0.1, SVG Export Plug-In . SVG Version: 6.00 Build 0)  -->
<svg version="1.1" id="Warstwa_1" xmlns="http://www.w3.org/2000/svg" xmlns:xlink="http://www.w3.org/1999/xlink" x="0px" y="0px"
	 viewBox="0 0 64 64" style="enable-background:new 0 0 64 64;" xml:space="preserve">
<style type="text/css">
	.st0{fill:none;stroke:#F6F6F6;stroke-width:3;stroke-linecap:round;stroke-linejoin:round;stroke-miterlimit:10;}
</style>
<title>Identity</title>
<desc>A line styled icon from Orion Icon Library.</desc>
<path class="st0" d="M34,46.9c4-0.9,4-2.3,4-3.3v-1.5c-1.9-1.8-2.9-4.3-2.9-6.9v-4.5c0.5-3.8,3.9-6.6,7.8-6.1
	c3.2,0.4,5.7,2.9,6.1,6.1v4.5c0,2.6-1.1,5.1-3,6.9v1.5c0,0.9,0,2.4,4.1,3.3S54,52,54,52H30C29.9,49.6,31.6,47.4,34,46.9z"/>
<path class="st0" d="M10,10H2v50h60V10h-8 M26,24H10 M20,32H10 M24,40H10 M18,10h28"/>
<path class="st0" d="M10,4h8v12h-8V4z M46,4h8v12h-8V4z"/>
</svg>
