<?xml version="1.0" encoding="utf-8"?>
<!-- Generator: Adobe Illustrator 23.0.1, SVG Export Plug-In . SVG Version: 6.00 Build 0)  -->
<svg version="1.1" id="Warstwa_1" xmlns="http://www.w3.org/2000/svg" xmlns:xlink="http://www.w3.org/1999/xlink" x="0px" y="0px"
	 viewBox="0 0 64 64" style="enable-background:new 0 0 64 64;" xml:space="preserve">
<style type="text/css">
	.st0{fill:none;stroke:#3C3C3B;stroke-width:3;stroke-linecap:round;stroke-linejoin:round;stroke-miterlimit:10;}
	.st1{fill:#52CA1A;}
	.st2{fill:#FFFFFF;}
	.st3{display:none;}
	.st4{display:inline;fill:#FFFFFF;}
</style>
<title>Search Cart</title>
<desc>A line styled icon from Orion Icon Library.</desc>
<path class="st0" d="M54.4,40.6L58,22 M6.1,22L12,52h26 M26,2L8.1,22 M38,2l18,20 M2,22h60"/>
<circle class="st0" cx="46" cy="46" r="10"/>
<path class="st0" d="M53.1,53.1L62,62"/>
<g>
	<circle class="st1" cx="9.8" cy="9.8" r="9.8"/>
	<g>
		<path class="st2" d="M11.4,4.9v10H9.3V7.4C9.2,7.5,9,7.6,8.9,7.7C8.7,7.8,8.5,7.8,8.3,7.9C8.2,8,8,8,7.8,8.1
			C7.6,8.2,7.4,8.2,7.2,8.2V6.4C7.8,6.2,8.3,6,8.8,5.8c0.5-0.3,0.9-0.5,1.3-0.8H11.4z"/>
	</g>
</g>
<g class="st3">
	<path class="st4" d="M11.4,5v10H9.3V7.4C9.2,7.5,9,7.6,8.9,7.7C8.7,7.8,8.5,7.9,8.3,7.9C8.2,8,8,8.1,7.8,8.1
		C7.6,8.2,7.4,8.2,7.2,8.2V6.4C7.8,6.3,8.3,6,8.8,5.8C9.3,5.5,9.7,5.3,10.1,5H11.4z"/>
</g>
<g>
	<path class="st1" d="M55.7,36.6c-0.4,0.4-0.4,1,0,1.4l0.4,0.4c0.4,0.4,1,0.4,1.4,0l5.8-5.8c0.4-0.4,0.4-1,0-1.4l-5.7-5.7
		c-0.4-0.4-1-0.4-1.4,0L55.7,26c-0.4,0.4-0.4,1,0,1.4l3.8,3.8c0.4,0.4,0.4,1,0,1.4L55.7,36.6z"/>
</g>
</svg>
