<?xml version="1.0" encoding="utf-8"?>
<!-- Generator: Adobe Illustrator 23.0.1, SVG Export Plug-In . SVG Version: 6.00 Build 0)  -->
<svg version="1.1" id="Warstwa_1" xmlns="http://www.w3.org/2000/svg" xmlns:xlink="http://www.w3.org/1999/xlink" x="0px" y="0px"
	 viewBox="0 0 64 64" style="enable-background:new 0 0 64 64;" xml:space="preserve">
<style type="text/css">
	.st0{fill:none;stroke:#3C3C3B;stroke-width:3;stroke-linecap:round;stroke-linejoin:round;}
	.st1{fill:#52CA1A;}
	.st2{fill:#FFFFFF;}
</style>
<title>Scooter</title>
<desc>A line styled icon from Orion Icon Library.</desc>
<path class="st0" d="M22,44c0,4.4-3.6,8-8,8s-8-3.6-8-8 M58.7,42c1.1,4.3-1.5,8.6-5.8,9.7s-8.6-1.5-9.7-5.8c-0.3-1.3-0.3-2.7,0-4"/>
<path class="st0" d="M38,10h4c1.1,0,4,1.2,4,4v18.2c0,3.2-2.9,10.5-12.1,10.5"/>
<path class="st0" d="M46,32h6c9.7,0,10,10,10,10H38.5 M16,30C8.3,30,2,36.3,2,44h32c0-7.7-6.3-14-14-14H16z"/>
<path class="st0" d="M23.9,22H2c1,6.1,6.9,8,13.9,8h4c3.1,0.1,6.2-0.5,9.1-1.7C32.1,26.6,32.4,22,23.9,22z M51,15v6"/>
<g>
	<circle class="st1" cx="9.8" cy="9.8" r="9.8"/>
	<g>
		<path class="st2" d="M6.6,14.6v-1.9c0.7,0.5,1.4,0.7,2.3,0.7c0.5,0,1-0.1,1.3-0.4c0.3-0.2,0.5-0.6,0.5-1c0-0.4-0.2-0.8-0.6-1
			s-0.9-0.4-1.6-0.4H7.6V9.1h0.8c1.3,0,1.9-0.4,1.9-1.3c0-0.8-0.5-1.2-1.5-1.2c-0.7,0-1.3,0.2-1.9,0.6V5.5C7.6,5.2,8.4,5,9.3,5
			c1,0,1.8,0.2,2.3,0.7c0.6,0.4,0.8,1,0.8,1.7c0,1.3-0.6,2.1-1.9,2.4v0c0.7,0.1,1.2,0.3,1.6,0.8c0.4,0.4,0.6,0.9,0.6,1.5
			c0,0.9-0.3,1.6-1,2.2s-1.6,0.8-2.8,0.8C8,15.1,7.2,14.9,6.6,14.6z"/>
	</g>
</g>
<g>
	<path class="st1" d="M55.7,36.6c-0.4,0.4-0.4,1,0,1.4l0.4,0.4c0.4,0.4,1,0.4,1.4,0l5.8-5.8c0.4-0.4,0.4-1,0-1.4l-5.7-5.7
		c-0.4-0.4-1-0.4-1.4,0L55.7,26c-0.4,0.4-0.4,1,0,1.4l3.8,3.8c0.4,0.4,0.4,1,0,1.4L55.7,36.6z"/>
</g>
</svg>
