<?xml version="1.0" encoding="utf-8"?>
<!-- Generator: Adobe Illustrator 23.0.1, SVG Export Plug-In . SVG Version: 6.00 Build 0)  -->
<svg version="1.1" id="Warstwa_1" xmlns="http://www.w3.org/2000/svg" xmlns:xlink="http://www.w3.org/1999/xlink" x="0px" y="0px"
	 viewBox="0 0 64 64" style="enable-background:new 0 0 64 64;" xml:space="preserve">
<style type="text/css">
	.st0{fill:none;stroke:#F6F6F6;stroke-width:3;stroke-linecap:round;stroke-linejoin:round;}
</style>
<title>Carrot</title>
<desc>A line styled icon from Orion Icon Library.</desc>
<path class="st0" d="M55.1,8.9l-8.4,8.4 M45.3,2c2.4,2.4,5.6,11.1,1.4,15.3 M62,18.7c-2.4-2.4-11.1-5.6-15.3-1.4"/>
<path class="st0" d="M46.7,17.3c-5.4-5.4-12.1-7.4-16.7-2.8C18.1,26.5-0.5,58.9,2.3,61.7s36.1-16.6,47.2-27.8
	C54.1,29.3,52.1,22.6,46.7,17.3z M26.4,19.1l7.8,7.9 M40.4,41.5l-6.2-6.2 M17.8,30.1l5.3,5.2 M27.1,50.4l-6.8-6.7"/>
</svg>
