<?xml version="1.0" encoding="utf-8"?>
<!-- Generator: Adobe Illustrator 23.0.1, SVG Export Plug-In . SVG Version: 6.00 Build 0)  -->
<svg version="1.1" id="Warstwa_1" xmlns="http://www.w3.org/2000/svg" xmlns:xlink="http://www.w3.org/1999/xlink" x="0px" y="0px"
	 viewBox="0 0 64 64" style="enable-background:new 0 0 64 64;" xml:space="preserve">
<style type="text/css">
	.st0{fill:none;stroke:#3C3C3B;stroke-width:3;stroke-linecap:round;stroke-linejoin:round;stroke-miterlimit:10;}
	.st1{fill:#52CA1A;}
	.st2{fill:#FFFFFF;}
</style>
<title>Happy</title>
<desc>A line styled icon from Orion Icon Library.</desc>
<circle class="st0" cx="32" cy="32" r="30"/>
<path class="st0" d="M48,40.9c-5.2,8.8-16.6,11.7-25.3,6.5c-2.8-1.6-5.1-4-6.7-6.8 M18,25.9c0,2.2,1.8,4,4,4s4-1.8,4-4 M38,25.9
	c0,2.2,1.8,4,4,4s4-1.8,4-4"/>
<g>
	<circle class="st1" cx="9.8" cy="54.2" r="9.8"/>
	<g>
		<path class="st2" d="M12.2,49.5v6.1h1.2v1.6h-1.2v2h-2v-2H6v-1.7c0.4-0.4,0.8-0.9,1.2-1.4c0.4-0.5,0.8-1,1.2-1.5
			c0.4-0.5,0.7-1.1,1-1.6c0.3-0.5,0.6-1,0.8-1.5H12.2z M8,55.7h2.3v-3.4c-0.2,0.3-0.3,0.6-0.5,0.9c-0.2,0.3-0.4,0.6-0.6,0.9
			c-0.2,0.3-0.4,0.6-0.6,0.8C8.3,55.2,8.1,55.4,8,55.7z"/>
	</g>
</g>
<g>
	<path class="st1" d="M63.4,31c0.4-0.4,0.4-1,0-1.4l-0.5-0.5c-0.4-0.4-1-0.4-1.4,0l-3.8,3.8c-0.4,0.4-1,0.4-1.4,0l-3.9-3.9
		c-0.4-0.4-0.7-0.7-0.7-0.7c0,0-0.3-0.3-0.7-0.7l-0.4-0.3c-0.4-0.4-1-0.4-1.4,0l-0.4,0.4c-0.4,0.4-0.4,1,0,1.4l3.5,3.5
		c0.4,0.4,0.7,0.7,0.7,0.7s0.3,0.3,0.7,0.7l2.7,2.7c0.4,0.4,1,0.4,1.4,0L63.4,31z"/>
</g>
</svg>
