<?xml version="1.0" encoding="utf-8"?>
<!-- Generator: Adobe Illustrator 23.0.1, SVG Export Plug-In . SVG Version: 6.00 Build 0)  -->
<svg version="1.1" id="Warstwa_1" xmlns="http://www.w3.org/2000/svg" xmlns:xlink="http://www.w3.org/1999/xlink" x="0px" y="0px"
	 viewBox="0 0 64 64" style="enable-background:new 0 0 64 64;" xml:space="preserve">
<style type="text/css">
	.st0{fill:none;stroke:#F6F6F6;stroke-width:3;stroke-linecap:round;stroke-linejoin:round;}
</style>
<title>Chef Hat</title>
<desc>A line styled icon from Orion Icon Library.</desc>
<path class="st0" d="M18,52v10h28V52"/>
<path class="st0" d="M26,52V38 M56,18c0.1-5.5-4.3-9.9-9.8-10c-1.2,0-2.4,0.2-3.5,0.6c-3-5.9-10.2-8.3-16.1-5.3
	c-2.3,1.2-4.1,3-5.3,5.3C20.2,8.2,19.1,8,18,8C12.5,8,8,12.5,8,18s4.5,10,10,10v24h28V28C51.5,28,56,23.5,56,18z M36,52V34"/>
</svg>
