<svg xmlns="http://www.w3.org/2000/svg" viewBox="0 0 64 64" aria-labelledby="title"
aria-describedby="desc" role="img" xmlns:xlink="http://www.w3.org/1999/xlink">
  <title>Man</title>
  <desc>A flat styled icon from Orion Icon Library.</desc>
  <path data-name="layer3"
  d="M50 51c-4.435-.739-6.91-1.719-8.29-2.756L32 62h30s0-9-12-11zm-36 0c4.435-.739 6.91-1.719 8.29-2.756L32 62H2s0-9 12-11z"
  fill="#78d1f4"></path>
  <path data-name="layer2" d="M46 18v-2C46 5.6 38.63 2 32 2S18 5.517 18 15.917V18c12 0 12-8 20-8 7.462 0 8 8 8 8z"
  fill="#915c53"></path>
  <path data-name="layer1" d="M46 20v-2s-.541-8-8-8c-.284 0-.557.013-.824.032-.1.007-.19.019-.285.028a9.436 9.436 0 0 0-.859.124c-.062.011-.122.025-.182.038C29.888 11.506 28.815 18 18 18v2c-3 0-3 2.934-3 4.928 0 4.006 1.208 6.9 4.233 6.937A18.006 18.006 0 0 0 24 40.159V44c0 1.175.258 2.768-1.71 4.244L32 62l9.711-13.756C39.745 46.768 40 45.175 40 44v-3.841a18.006 18.006 0 0 0 4.767-8.294C47.795 31.828 49 28.934 49 24.928 49 22.934 49 20 46 20z"
  fill="#ffd9d9"></path>
  <path data-name="opacity" d="M32 2c-6.624 0-14 3.517-14 13.917V18c8.06 0 10.708-3.606 14-5.977z"
  fill="#000064" opacity=".15"></path>
  <path data-name="opacity" d="M32 43.159V12.026C28.709 14.395 26.059 18 18 18v2c-3 0-3 2.934-3 4.928 0 4.006 1.208 6.9 4.233 6.937A18.006 18.006 0 0 0 24 40.159V44c0 .272.012.57.009.88a3.856 3.856 0 0 1-1.719 3.364C20.911 49.281 18.437 50.261 14 51 2 53 2 62 2 62h16.16L40 40.159a11.965 11.965 0 0 1-8 3z"
  fill="#000064" opacity=".15"></path>
</svg>