<?xml version="1.0" encoding="utf-8"?>
<!-- Generator: Adobe Illustrator 23.0.1, SVG Export Plug-In . SVG Version: 6.00 Build 0)  -->
<svg version="1.1" id="Warstwa_1" xmlns="http://www.w3.org/2000/svg" xmlns:xlink="http://www.w3.org/1999/xlink" x="0px" y="0px"
	 viewBox="0 0 64 64" style="enable-background:new 0 0 64 64;" xml:space="preserve">
<style type="text/css">
	.st0{fill:none;stroke:#3C3C3B;stroke-width:3;stroke-linecap:round;stroke-linejoin:round;stroke-miterlimit:10;}
	.st1{fill:#52CA1A;}
	.st2{fill:#FFFFFF;}
</style>
<title>Meeting Location</title>
<desc>A line styled icon from Orion Icon Library.</desc>
<path class="st0" d="M40.6,31c0.9-2.9,1.4-5.9,1.4-9c0-11-9-20-20-20S2,11,2,22c0,18,20,38,20,38c3.1-3.2,5.9-6.5,8.5-10.1"/>
<circle class="st0" cx="22" cy="22" r="6"/>
<circle class="st0" cx="46" cy="46" r="16"/>
<path class="st0" d="M46,38v10h8"/>
<g>
	<circle class="st1" cx="9.8" cy="54.2" r="9.8"/>
	<g>
		<path class="st2" d="M8.7,57.5h4.1v1.8H6.3v-0.7c0-0.5,0.1-0.9,0.3-1.3c0.2-0.4,0.4-0.8,0.6-1.1c0.3-0.3,0.5-0.6,0.8-0.8
			c0.3-0.2,0.6-0.5,0.9-0.7c0.3-0.2,0.5-0.4,0.8-0.6s0.4-0.4,0.5-0.6c0.1-0.2,0.3-0.4,0.3-0.6c0.1-0.2,0.1-0.4,0.1-0.6
			c0-0.4-0.1-0.7-0.4-0.9s-0.6-0.3-1.1-0.3c-0.8,0-1.6,0.3-2.4,1v-1.9c0.8-0.5,1.8-0.8,2.9-0.8c0.5,0,0.9,0.1,1.3,0.2
			c0.4,0.1,0.7,0.3,1,0.6c0.3,0.2,0.5,0.5,0.6,0.9s0.2,0.7,0.2,1.1c0,0.4-0.1,0.8-0.2,1.2c-0.1,0.3-0.3,0.7-0.6,1
			c-0.2,0.3-0.5,0.5-0.8,0.8c-0.3,0.2-0.6,0.5-0.9,0.7c-0.2,0.2-0.4,0.3-0.6,0.5c-0.2,0.2-0.4,0.3-0.5,0.4c-0.2,0.1-0.3,0.3-0.4,0.4
			C8.7,57.2,8.7,57.4,8.7,57.5z"/>
	</g>
</g>
<g>
	<path class="st1" d="M55.7,36.6c-0.4,0.4-0.4,1,0,1.4l0.4,0.4c0.4,0.4,1,0.4,1.4,0l5.8-5.8c0.4-0.4,0.4-1,0-1.4l-5.7-5.7
		c-0.4-0.4-1-0.4-1.4,0L55.7,26c-0.4,0.4-0.4,1,0,1.4l3.8,3.8c0.4,0.4,0.4,1,0,1.4L55.7,36.6z"/>
</g>
</svg>
